/* XPM */
static char *e290250c91844b15eff97c4b41686934[] = {
/* columns rows colors chars-per-pixel */
"64 64 8 1 ",
"  c black",
". c #5F0737",
"X c yellow",
"o c #FB108F",
"O c #FF48AB",
"+ c #FDC6A8",
"@ c #FBC9AE",
"# c #FBD9C6",
/* pixels */
"                          XXXXXXXX                              ",
"                         XXXXXXXXXX                             ",
"                        XXXXXXXXXXXX                            ",
"                        XXXXXXXXXXXX                            ",
"                        XX########XX                            ",
"                        X##########X                            ",
"                        X##########X                            ",
"                        ###..##..###                            ",
"                        ###..##..###                            ",
"                        ############                            ",
"                        ############                            ",
"                         ####oo####                             ",
"                          ###oo###                              ",
"                           ######X                              ",
"                            @@@@XX                              ",
"                            @@@@XXX                             ",
"                          @@@@@@@@                              ",
"                        ###@@@@@@###                            ",
"                      ######@@@@######                          ",
"                     ##################                         ",
"                   ######################                       ",
"                 ##########################                     ",
"               ##############+###############                   ",
"             #########+++####+#####++##########                 ",
"           #########++++#####+######++++#########               ",
"         #########+++  ######+#######  ++++########             ",
"        #######++++    ######+#######    ++++#######            ",
"        ####++++       O####+#+#####O       ++++####            ",
"        #++++           ++++###+++++           ++++#            ",
"                         ++#####+++                             ",
"                         ##########                             ",
"                         ##########                             ",
"                         ##########                             ",
"                         ##########                             ",
"                        +##########+                            ",
"                        +##########+                            ",
"                       #####....#####                           ",
"                       ######..######                           ",
"                      #######OO#######                          ",
"                      ######+oo+######                          ",
"                      ######+  +######                          ",
"                     ######++  ++######                         ",
"                     ######+    +######                         ",
"                    ######++    ++######                        ",
"                    ######+      +######                        ",
"                    #####++      ++#####                        ",
"                   ######+        +######                       ",
"                   #####++        ++#####                       ",
"                  ######+          +######                      ",
"                  #####++          ++#####                      ",
"                  #####+            +#####                      ",
"                 #####++            ++#####                     ",
"                 #####+              +#####                     ",
"                #####++              ++#####                    ",
"                #####+                +#####                    ",
"                ####++                ++####                    ",
"               #####+                  +#####                   ",
"               ####++                  ++####                   ",
"              #####+                    +#####                  ",
"              ####++                    ++####                  ",
"              ###++                      +++##                  ",
"               +++                        +++                   ",
"                                                                ",
"                                                                "
};
